<?xml version="1.0" standalone="no"?>
<!DOCTYPE svg PUBLIC "-//W3C//DTD SVG 20010904//EN"
 "http://www.w3.org/TR/2001/REC-SVG-20010904/DTD/svg10.dtd">
<svg version="1.0" xmlns="http://www.w3.org/2000/svg"
 width="40" height="40" viewBox="0 0 300.000000 281.000000"
 preserveAspectRatio="xMidYMid meet">
<metadata>
Created by potrace 1.10, written by Peter Selinger 2001-2011
</metadata>
<g transform="translate(0.000000,281.000000) scale(0.100000,-0.100000)"
fill="#000000" stroke="none">
<path d="M1680 2384 c-329 -70 -571 -293 -662 -611 -19 -66 -23 -101 -22 -228
1 -136 3 -158 29 -235 49 -152 112 -255 218 -359 81 -79 129 -113 233 -162
132 -63 187 -74 364 -74 135 0 165 3 230 23 204 65 359 181 489 370 27 39 20
54 -12 25 -92 -83 -314 -143 -467 -128 -179 17 -330 87 -455 210 -93 90 -150
180 -192 300 -25 73 -28 92 -28 225 0 122 4 156 22 212 61 185 185 345 326
419 20 11 37 22 37 24 0 8 -42 4 -110 -11z m-81 -96 c-120 -122 -182 -240
-215 -406 -55 -286 65 -588 302 -758 148 -106 295 -148 488 -142 102 3 135 9
208 34 49 17 88 26 88 21 0 -14 -137 -144 -169 -161 -14 -8 -55 -30 -91 -49
-215 -117 -482 -124 -711 -20 -142 65 -257 161 -337 282 -98 150 -142 291
-142 459 0 223 72 405 227 572 74 80 248 193 312 203 11 2 24 6 27 10 4 4 20
7 36 7 l29 0 -52 -52z"/>
<path d="M1911 2202 c-2 -85 -57 -142 -138 -142 -24 0 -43 -4 -43 -10 0 -5 22
-10 49 -10 79 0 130 -55 132 -142 l1 -43 13 60 c10 46 21 67 49 92 30 28 43
33 86 33 27 0 50 5 50 10 0 6 -19 10 -42 10 -49 0 -100 27 -119 62 -7 13 -18
46 -25 73 l-12 50 -1 -43z m38 -123 l24 -30 -28 -29 -28 -29 -27 31 -28 31 27
28 c14 16 28 28 31 28 3 0 16 -14 29 -30z"/>
<path d="M617 2171 c-5 -25 -13 -33 -37 -37 l-30 -7 32 -16 c19 -9 35 -26 38
-41 6 -25 6 -25 17 7 9 24 20 34 45 41 l33 8 -33 7 c-24 5 -36 15 -46 38 l-13
31 -6 -31z"/>
<path d="M711 1737 c-1 -21 -6 -47 -11 -58 -14 -25 -61 -49 -102 -50 -27 -1
-28 -3 -8 -6 86 -14 116 -41 122 -109 l4 -39 8 30 c22 84 39 101 113 115 l38
8 -33 1 c-66 2 -97 30 -120 111 l-10 35 -1 -38z m23 -93 c20 -8 21 -28 1 -44
-11 -10 -18 -9 -30 3 -18 19 -19 34 -2 40 6 3 13 6 14 6 1 1 8 -2 17 -5z"/>
<path d="M1847 1536 c-10 -14 -24 -26 -32 -26 -8 0 -15 -4 -15 -10 0 -5 7 -10
15 -10 8 0 24 -14 34 -31 19 -31 19 -31 23 -8 1 13 13 28 26 34 27 12 28 21 2
28 -11 3 -24 15 -28 27 l-8 22 -17 -26z"/>
<path d="M2231 1460 c-2 -66 -45 -109 -111 -111 l-45 -1 45 -12 c25 -6 52 -15
61 -21 27 -18 49 -58 50 -95 l2 -35 6 40 c12 72 30 90 111 113 l35 10 -41 1
c-29 1 -49 8 -67 25 -25 23 -31 38 -40 96 -3 18 -5 16 -6 -10z m29 -135 c-15
-19 -34 -19 -49 -2 -8 10 -6 19 6 34 16 20 17 20 36 2 17 -15 18 -21 7 -34z"/>
<path d="M498 1145 c-2 -19 -11 -33 -25 -40 -29 -12 -29 -18 -1 -30 14 -6 25
-22 28 -40 l6 -30 7 32 c5 24 13 34 32 39 30 7 32 20 5 27 -11 3 -27 20 -34
38 l-14 34 -4 -30z"/>
<path d="M870 887 c0 -46 -43 -87 -101 -95 l-44 -6 50 -8 c61 -9 95 -42 95
-94 0 -21 4 -33 10 -29 6 3 10 17 10 31 0 54 46 93 112 95 29 1 28 2 -15 11
-53 11 -97 53 -97 93 0 13 -4 27 -10 30 -6 4 -10 -8 -10 -28z m29 -112 c-16
-16 -49 -11 -49 7 0 6 8 17 18 24 14 11 20 10 32 -2 12 -12 12 -16 -1 -29z"/>
<path d="M2391 629 c-1 -30 -26 -55 -61 -62 l-25 -4 26 -2 c30 -1 55 -26 62
-61 l4 -25 2 26 c1 30 18 47 58 59 l28 8 -26 1 c-30 1 -55 26 -62 61 l-4 25
-2 -26z"/>
<path d="M1548 561 c-9 -59 -41 -90 -104 -100 -43 -8 -45 -9 -14 -10 69 -2
103 -38 123 -126 3 -11 5 -3 6 17 1 53 42 96 101 106 l45 8 -44 6 c-57 8 -93
43 -101 100 l-6 43 -6 -44z m30 -104 c4 -22 -24 -33 -43 -17 -12 10 -13 16 -4
27 16 18 43 13 47 -10z"/>
</g>
</svg>
